<svg
  id="root"
  xmlns="http://www.w3.org/2000/svg"
  viewBox="0 0 24 24"
  fill="currentColor"
>
  <path
    d="M12 .5C5.65.5.5 5.66.5 12.03c0 5.08 3.29 9.39 7.86 10.91.57.11.78-.25.78-.55 0-.27-.01-1.18-.02-2.14-3.2.7-3.87-1.36-3.87-1.36-.52-1.32-1.27-1.68-1.27-1.68-1.04-.71.08-.7.08-.7 1.15.08 1.75 1.18 1.75 1.18 1.02 1.75 2.68 1.25 3.34.95.1-.74.4-1.25.72-1.54-2.55-.29-5.24-1.28-5.24-5.69 0-1.26.45-2.29 1.18-3.1-.12-.29-.51-1.46.11-3.05 0 0 .97-.31 3.17 1.18a10.99 10.99 0 0 1 5.77 0c2.2-1.49 3.17-1.18 3.17-1.18.62 1.59.23 2.76.11 3.05.73.81 1.18 1.84 1.18 3.1 0 4.42-2.69 5.39-5.25 5.68.41.36.78 1.07.78 2.16 0 1.56-.01 2.82-.01 3.2 0 .31.21.67.79.55 4.57-1.52 7.85-5.83 7.85-10.91C23.5 5.66 18.35.5 12 .5Z"
  />
</svg>
